<?xml version="1.0" encoding="UTF-8" standalone="no"?>
<svg
   xmlns:dc="http://purl.org/dc/elements/1.1/"
   xmlns:cc="http://creativecommons.org/ns#"
   xmlns:rdf="http://www.w3.org/1999/02/22-rdf-syntax-ns#"
   xmlns:svg="http://www.w3.org/2000/svg"
   xmlns="http://www.w3.org/2000/svg"
   width="48px"
   height="48px"
   id="svg2856"
   version="1.1">
  <defs
     id="defs2858">
    <filter
       id="filter3864">
      <feGaussianBlur
         stdDeviation="0.20490381"
         id="feGaussianBlur3866" />
    </filter>
    <filter
       style="color-interpolation-filters:sRGB;"
       id="filter9742">
      <feGaussianBlur
         stdDeviation="0.1 0.2"
         result="fbSourceGraphic"
         id="feGaussianBlur9740" />
      <feColorMatrix
         result="fbSourceGraphicAlpha"
         in="fbSourceGraphic"
         values="0 0 0 -1 0 0 0 0 -1 0 0 0 0 -1 0 0 0 0 1 0"
         id="feColorMatrix9780" />
      <feFlood
         id="feFlood9782"
         flood-opacity="0.498039"
         flood-color="rgb(0,0,0)"
         result="flood"
         in="fbSourceGraphic" />
      <feComposite
         in2="fbSourceGraphic"
         id="feComposite9784"
         in="flood"
         operator="in"
         result="composite1" />
      <feGaussianBlur
         id="feGaussianBlur9786"
         in="composite1"
         stdDeviation="0.2"
         result="blur" />
      <feOffset
         id="feOffset9788"
         dx="-0.8"
         dy="-0.8"
         result="offset" />
      <feComposite
         in2="offset"
         id="feComposite9790"
         in="fbSourceGraphic"
         operator="over"
         result="composite2" />
    </filter>
  </defs>
  <metadata
     id="metadata2861">
    <rdf:RDF>
      <cc:Work
         rdf:about="">
        <dc:format>image/svg+xml</dc:format>
        <dc:type
           rdf:resource="http://purl.org/dc/dcmitype/StillImage" />
        <dc:title></dc:title>
      </cc:Work>
    </rdf:RDF>
  </metadata>
  <g
     id="layer1">
    <path
       style="fill:#e9b96e;fill-opacity:1;stroke:#573a0d;stroke-width:1;stroke-linecap:square;stroke-linejoin:miter;stroke-miterlimit:4;stroke-opacity:1;stroke-dasharray:none;stroke-dashoffset:0"
       d="M 6.1513775e-7,16 3.2110204e-7,28 21.035899,40.145082 l 21,-12.414519 0,-11.461126 L 20.78461,4 6.1513775e-7,16 z"
       id="path3047"
       transform="translate(3.4641013,6)" />
    <path
       style="fill:#2e3436;fill-opacity:1;stroke:#2e3436;stroke-width:1;stroke-linecap:round;stroke-linejoin:miter;stroke-miterlimit:4;stroke-opacity:1;stroke-dasharray:none;stroke-dashoffset:0"
       d="m 8.5,30.907477 -2,-1.1547 0,6 L 17.320508,42 l 0,-2 -1.732051,-1 0,-2 L 13.5,35.794229 l 0,-4 -5,-2.886752 0,2 z"
       id="path3831" />
    <path
       style="opacity:1;fill:#555753;fill-opacity:1;stroke:#2e3436;stroke-linejoin:miter"
       d="m 6.9282032,36 3.4641018,-2 3.464101,2 1.643594,0.948929 0,2 2,1.154701 0,2 L 6.9282032,36 z"
       id="path3870" />
    <path
       style="fill:#fce94f;fill-opacity:1;stroke:#625802;stroke-width:1;stroke-linecap:round;stroke-linejoin:round;stroke-miterlimit:4;stroke-opacity:1;stroke-dasharray:none;stroke-dashoffset:0"
       d="M 25.980762,19 31.5,22.186533 l 0,2 L 38.09375,28 41.5625,26 45.5,23.730563 l 0,2.538874 0,-4 L 32.908965,15 25.980762,19 z"
       id="path3851" />
    <path
       style="fill:#e9b96e;fill-opacity:1;stroke:#573a0d;stroke-width:1;stroke-linecap:round;stroke-linejoin:round;stroke-miterlimit:4;stroke-opacity:1;stroke-dasharray:none;stroke-dashoffset:0.50000000000000000"
       d="m 24.839746,18.341234 8.660254,-5 0,2 -8.660254,5 0,-2 z"
       id="path5684" />
    <path
       style="fill:#73d216;fill-opacity:1;stroke:#325b09;stroke-width:1;stroke-linecap:square;stroke-linejoin:round;stroke-miterlimit:4;stroke-opacity:1;stroke-dasharray:none;stroke-dashoffset:0"
       d="M 25.980762,5 3.4641016,18 17.5,26.10363 31.5,18.186533 24.839746,14.341234 33.5,9.341234 25.980762,5 z"
       id="path3821"
       transform="translate(0,4)" />
    <path
       style="fill:#729fcf;fill-opacity:1;stroke:#19314b;stroke-width:1;stroke-linecap:round;stroke-linejoin:miter;stroke-miterlimit:4;stroke-opacity:1;stroke-dasharray:none;stroke-dashoffset:0"
       d="m 17.5,28.10363 0,2 1.552559,0.89637 0,2 5.447441,3.145082 12,-7.071797 0,-2.14657 2,-1.1547 0,-1.54403 -7,-4.041452 -14,7.917097 z"
       id="path3825"
       transform="translate(0,4)" />
    <g
       id="g5691"
       style="stroke-linejoin:miter">
      <path
         id="path3862"
         d="m 13.856406,20 6.928204,4 -6.928204,4 -6.9282028,-4 6.9282028,-4 z"
         style="fill:#2e3436;fill-opacity:1;stroke:none;stroke-width:1;stroke-linecap:round;stroke-linejoin:miter;stroke-miterlimit:4;stroke-opacity:1;stroke-dasharray:none;stroke-dashoffset:0;filter:url(#filter3864);opacity:0.25000000000000000" />
      <g
         id="g3858"
         style="stroke-linejoin:miter">
        <path
           style="fill:#c17d11;fill-opacity:1;stroke:#8f5902;stroke-width:1;stroke-linecap:round;stroke-linejoin:miter;stroke-miterlimit:4;stroke-opacity:1;stroke-dasharray:none;stroke-dashoffset:0"
           d="m 15.588457,21 1.732051,1 1.732051,-1 0,-6 -1.732051,-1 -1.732051,1 0,6 z"
           id="path3833"
           transform="translate(-3.4641015,2)" />
        <path
           style="fill:#4e9a06;fill-opacity:1;stroke:#316004;stroke-width:1;stroke-linecap:round;stroke-linejoin:miter;stroke-miterlimit:4;stroke-opacity:1;stroke-dasharray:none;stroke-dashoffset:0"
           d="M 9.9641015,13.752777 17.320508,18 l 6.643593,-3.835681 0,-8.3286385 L 17.320508,2 9.9641015,6.2472233 l 0,7.5055537 z"
           id="path3837"
           transform="translate(-3.4641015,2)" />
      </g>
    </g>
    <g
       id="g5686"
       transform="translate(-4.2591582e-7,2)"
       style="stroke-linejoin:miter">
      <path
         transform="translate(24.248712,-2)"
         style="opacity:0.25000000000000000;fill:#2e3436;fill-opacity:1;stroke:none;filter:url(#filter3864);stroke-linejoin:miter"
         d="m 13.856406,20 5.196153,3 -5.196153,3 -5.196152,-3 5.196152,-3 z"
         id="path3868" />
      <path
         style="fill:#4e9a06;fill-opacity:1;stroke:#316004;stroke-width:1;stroke-linecap:round;stroke-linejoin:miter;stroke-miterlimit:4;stroke-opacity:1;stroke-dasharray:none;stroke-dashoffset:0"
         d="M 15.71539,21.073285 17.320508,22 l 1.394882,-0.805336 0,-8.389328 L 17.320508,12 l -1.605118,1.073285 0,8 z"
         id="path3853"
         transform="translate(20.78461,0)" />
    </g>
    <path
       style="fill:none;fill-opacity:1;stroke:#ef2929;stroke-width:0.50000000000000000;stroke-linecap:butt;stroke-linejoin:miter;stroke-miterlimit:4;stroke-opacity:1;stroke-dasharray:0.50000000000000000, 0.50000000000000000;stroke-dashoffset:0.25000000000000000"
       d="M 12.124356,33 11.25833,32.5"
       id="path3872" />
    <path
       style="fill:#888a85;stroke:#2e3436;stroke-width:1;stroke-linecap:round;stroke-linejoin:miter;stroke-miterlimit:4;stroke-opacity:1;stroke-dasharray:none;stroke-dashoffset:0.50000000000000000"
       d="m 45.5,26.730563 -4,2.309401 0,1 -2,1.1547 0,2 -2,1.154701 0,4 8,-4.618802 0,-7 z"
       id="path3874" />
    <flowRoot
       xml:space="preserve"
       id="flowRoot9388"
       style="font-style:normal;font-weight:normal;font-size:40px;line-height:1.25;font-family:sans-serif;letter-spacing:0px;word-spacing:0px;fill:#000000;fill-opacity:1;stroke:none"><flowRegion
         id="flowRegion9390"><rect
           id="rect9392"
           width="43.848907"
           height="43.641747"
           x="2.4859223"
           y="2.8390784" /></flowRegion><flowPara
         id="flowPara9394">4</flowPara></flowRoot>    <g
       id="text9398"
       style="font-style:italic;font-variant:normal;font-weight:normal;font-stretch:normal;font-size:40px;line-height:1.25;font-family:'Titillium Web';-inkscape-font-specification:'Titillium Web Italic';letter-spacing:0px;word-spacing:0px;opacity:0.95099996;fill:#000000;fill-opacity:1;stroke:none;filter:url(#filter9742)"
       aria-label="4">
      <path
         id="path846"
         style="font-style:italic;font-variant:normal;font-weight:normal;font-stretch:normal;font-family:'Titillium Web';-inkscape-font-specification:'Titillium Web Italic';opacity:0.91300001;fill:#0020ff;fill-opacity:0.8262295"
         d="m 25.639999,37.24 1.16,-5.04 h -12.44 l 0.56,-2.28 12.56,-19.16 h 3.4 l -12.68,18.84 h 9.2 l 2,-8.64 h 3.04 l -2,8.64 h 3.2 l -0.64,2.6 h -3.16 l -1.16,5.04 z" />
    </g>
  </g>
</svg>
